<svg width="114" height="12" viewBox="0 0 114 12" fill="none" xmlns="http://www.w3.org/2000/svg">
<path d="M51.2215 0.118788C51.2848 0.0438378 51.3821 0 51.4852 0H51.8192C51.8887 0 51.9278 0.0736218 51.8851 0.124149L49.7518 2.65044C49.6886 2.72539 49.5912 2.76923 49.4882 2.76923H49.1542C49.0847 2.76923 49.0456 2.69561 49.0883 2.64508L51.2215 0.118788Z" fill="#E7133D"/>
<path d="M46.8117 0.307692C46.9924 0.307692 47.1255 0.417988 47.1436 0.576558L47.1457 0.61398V1.53284C47.1457 1.69853 47.0255 1.82061 46.8526 1.8372L46.8117 1.83913H45.6428C45.4622 1.83913 45.329 1.72889 45.3109 1.57028L45.3088 1.53284V0.61398C45.3088 0.44835 45.429 0.326224 45.602 0.309622L45.6428 0.307692H46.8117Z" fill="#E7133D"/>
<path d="M62.0398 2.50766C61.8531 2.50766 61.6994 2.37805 61.6797 2.21176L61.6776 2.17559L61.6777 0.639769C61.6777 0.468583 61.8189 0.327674 62.0004 0.309647L62.0399 0.307699H63.0545C63.2414 0.307699 63.3951 0.437196 63.4147 0.603583L63.4169 0.639769L63.4172 1.07324L64.5841 1.07316C64.7708 1.07316 64.9245 1.20266 64.9442 1.36905L64.9463 1.40523V2.17559C64.9463 2.34666 64.8051 2.48767 64.6236 2.50571L64.5841 2.50766H62.0398Z" fill="#E7133D"/>
<path d="M112.42 9.80004C112.607 9.80004 112.761 9.92965 112.78 10.0959L112.782 10.1321L112.782 11.6679C112.782 11.8391 112.641 11.98 112.46 11.9981L112.42 12H111.405C111.219 12 111.065 11.8705 111.045 11.7041L111.043 11.6679L111.043 11.2345L109.876 11.2345C109.689 11.2345 109.536 11.105 109.516 10.9387L109.514 10.9025V10.1321C109.514 9.96104 109.655 9.82003 109.836 9.80199L109.876 9.80004H112.42Z" fill="#E7133D"/>
<path d="M99.4283 2.51945C99.448 2.68575 99.6017 2.81536 99.7884 2.81536H102.333L102.372 2.81341C102.554 2.79536 102.695 2.65435 102.695 2.48329V1.71293L102.693 1.67674C102.673 1.51035 102.519 1.38086 102.333 1.38086L101.166 1.38093L101.165 0.947461L101.163 0.911276C101.144 0.744888 100.99 0.615391 100.803 0.615391H99.7885L99.749 0.61734C99.5675 0.635367 99.4263 0.776276 99.4263 0.947461L99.4262 2.48329L99.4283 2.51945Z" fill="#E7133D"/>
<path d="M36.9567 2.76923C37.1374 2.76923 37.2705 2.87953 37.2886 3.0381L37.2907 3.07552V3.99438C37.2907 4.16007 37.1705 4.28215 36.9976 4.29874L36.9567 4.30067H34.2848C34.1041 4.30067 33.971 4.19043 33.9529 4.03182L33.9508 3.99438V3.07552C33.9508 2.90989 34.071 2.78776 34.244 2.77116L34.2848 2.76923H36.9567Z" fill="#E7133D"/>
<path d="M107.775 10.0771C107.757 9.91852 107.624 9.80822 107.443 9.80822H104.771L104.73 9.81015C104.557 9.82676 104.437 9.94888 104.437 10.1145V11.0334L104.439 11.0708C104.457 11.2294 104.59 11.3397 104.771 11.3397H107.443L107.484 11.3377C107.657 11.3211 107.777 11.1991 107.777 11.0334V10.1145L107.775 10.0771Z" fill="#E7133D"/>
<path d="M10.2321 9.80822C10.4127 9.80822 10.5459 9.91852 10.5639 10.0771L10.5661 10.1145V11.0334C10.5661 11.1991 10.4458 11.3211 10.2729 11.3377L10.2321 11.3397H7.5601C7.37943 11.3397 7.24631 11.2294 7.22821 11.0708L7.22611 11.0334V10.1145C7.22611 9.94888 7.34632 9.82676 7.51928 9.81015L7.5601 9.80822H10.2321Z" fill="#E7133D"/>
<path d="M91.9075 1.49964C91.8894 1.34107 91.7562 1.23077 91.5756 1.23077H90.4066L90.3658 1.2327C90.1929 1.2493 90.0726 1.37143 90.0726 1.53706V2.45592L90.0747 2.49335C90.0928 2.65197 90.226 2.76221 90.4066 2.76221H91.5756L91.6164 2.76028C91.7893 2.74369 91.9096 2.62161 91.9096 2.45592V1.53706L91.9075 1.49964Z" fill="#E7133D"/>
<path d="M5.22182 1.23077C5.40243 1.23077 5.53561 1.34107 5.55371 1.49964L5.55582 1.53706V2.45592C5.55582 2.62161 5.43554 2.74369 5.26263 2.76028L5.22182 2.76221H4.21952C4.0389 2.76221 3.90573 2.65197 3.88763 2.49335L3.88552 2.45592V1.53706C3.88552 1.37143 4.0058 1.2493 4.17871 1.2327L4.21952 1.23077H5.22182Z" fill="#E7133D"/>
<path d="M23.4255 1.49964C23.4074 1.34107 23.2742 1.23077 23.0936 1.23077H21.9246L21.8838 1.2327C21.7109 1.2493 21.5906 1.37143 21.5906 1.53706V2.45592L21.5927 2.49335C21.6108 2.65197 21.744 2.76221 21.9246 2.76221H23.0936L23.1344 2.76028C23.3073 2.74369 23.4276 2.62161 23.4276 2.45592V1.53706L23.4255 1.49964Z" fill="#E7133D"/>
<path d="M76.0399 4.82715C76.0024 3.5755 75.0882 2.76362 73.7031 2.76362H70.6972L70.6564 2.76555C70.4836 2.78216 70.3632 2.90439 70.3632 3.06991V3.98877L70.3653 4.02616C70.3834 4.1846 70.5167 4.29506 70.6972 4.29506H73.7031L73.7611 4.29616C74.1765 4.31244 74.3711 4.5083 74.3711 4.90763V6.74536L74.3699 6.79855C74.3521 7.17938 74.1386 7.35794 73.7031 7.35794H70.6972L70.6564 7.35987C70.4836 7.37648 70.3632 7.49865 70.3632 7.66422V8.58309L70.3653 8.62049C70.3834 8.77897 70.5167 8.88937 70.6972 8.88937H73.7031L73.7909 8.88828C75.1557 8.8539 76.0411 8.01555 76.0411 6.74536V4.90763L76.0399 4.82715Z" fill="#E7133D"/>
<path d="M15.0728 0C14.9697 0 14.8724 0.0438378 14.8091 0.118788L12.6759 2.64508C12.6332 2.69561 12.6723 2.76923 12.7418 2.76923H13.0758C13.1789 2.76923 13.2762 2.72539 13.3395 2.65044L15.4727 0.124149C15.5154 0.0736218 15.4763 0 15.4068 0H15.0728Z" fill="#E7133D"/>
<path fill-rule="evenodd" clip-rule="evenodd" d="M80.3849 5.53847V7.38462H79.7168C79.1633 7.38462 78.7146 6.97134 78.7146 6.46154V1.23077C78.7146 1.06084 78.5651 0.923077 78.3806 0.923077H77.3784C77.1939 0.923077 77.0443 1.06084 77.0443 1.23077V6.46154C77.0443 7.82101 78.2408 8.92308 79.7168 8.92308H86.8991C87.505 8.92308 88.0606 8.72499 88.4939 8.39528L88.7909 8.79053C88.8533 8.87355 88.956 8.92308 89.0656 8.92308H91.062C91.8222 8.92308 92.5082 8.63071 92.9949 8.16139L93.4678 8.79053C93.5302 8.87355 93.6328 8.92308 93.7424 8.92308H95.7388C96.399 8.92308 97.0034 8.70254 97.4697 8.33708L97.8105 8.79053C97.8729 8.87355 97.9756 8.92308 98.0852 8.92308H99.4086C100.072 8.92308 100.678 8.70061 101.146 8.33228L101.49 8.79053C101.552 8.87355 101.655 8.92308 101.765 8.92308H102.086C102.782 8.92308 103.416 8.67785 103.892 8.27605L104.176 8.76127C104.234 8.86093 104.347 8.92308 104.47 8.92308H106.776C107.434 8.92308 108.03 8.67207 108.455 8.26821L108.847 8.79053C108.91 8.87355 109.012 8.92308 109.122 8.92308H111.118C112.594 8.92308 113.791 7.82101 113.791 6.46154V4.61539C113.791 4.44545 113.641 4.30769 113.457 4.30769H112.455C112.27 4.30769 112.121 4.44545 112.121 4.61539V6.46154C112.121 6.97134 111.672 7.38462 111.118 7.38462H109.017C109.08 7.18963 109.114 6.98307 109.114 6.76924V4.61539C109.114 4.44545 108.964 4.30769 108.78 4.30769H107.778C107.593 4.30769 107.444 4.44545 107.444 4.61539V6.76924C107.444 7.1091 107.145 7.38462 106.776 7.38462H104.771V4.61539C104.771 4.44545 104.622 4.30769 104.437 4.30769H103.422C103.238 4.30769 103.088 4.44545 103.088 4.61539V6.46154C103.088 6.97134 102.639 7.38462 102.086 7.38462H101.887C102.012 7.09956 102.081 6.78797 102.081 6.46154V4.61539C102.081 4.44545 101.931 4.30769 101.747 4.30769H100.745C100.56 4.30769 100.411 4.44545 100.411 4.61539V6.46154C100.411 6.97134 99.9621 7.38462 99.4086 7.38462H98.217C98.3422 7.09956 98.4112 6.78797 98.4112 6.46154V4.61539C98.4112 4.44545 98.2617 4.30769 98.0772 4.30769H97.075C96.8905 4.30769 96.7409 4.44545 96.7409 4.61539V6.46154C96.7409 6.97134 96.2922 7.38462 95.7388 7.38462H93.5402C93.6654 7.09956 93.7344 6.78797 93.7344 6.46154V4.61539C93.7344 4.44545 93.5849 4.30769 93.4004 4.30769H92.3982C92.2137 4.30769 92.0641 4.44545 92.0641 4.61539V6.46154C92.0641 6.97134 91.6154 7.38462 91.062 7.38462H89.2619C89.3543 7.14402 89.4045 6.88511 89.4045 6.61539C89.4045 5.34088 88.2828 4.30769 86.8991 4.30769H85.3723C84.9102 3.57194 84.0466 3.07693 83.0574 3.07693C81.5814 3.07693 80.3849 4.17899 80.3849 5.53847ZM83.0574 4.61539C82.5039 4.61539 82.0552 5.02866 82.0552 5.53847V7.38462H84.0596V5.53847C84.0596 5.02866 83.6109 4.61539 83.0574 4.61539ZM85.7299 7.38462L85.7299 5.84616H86.8991C87.3603 5.84616 87.7342 6.19055 87.7342 6.61539C87.7342 7.04022 87.3603 7.38462 86.8991 7.38462H85.7299Z" fill="#E7133D"/>
<path fill-rule="evenodd" clip-rule="evenodd" d="M48.9834 6.46154C48.9834 6.78797 48.9144 7.09956 48.7892 7.38462H53.6588C54.6147 7.38462 55.3288 6.72674 55.3288 5.84616V5.53847C55.3288 4.65788 54.6147 4 53.6588 4H49.8179C49.5173 4 49.4594 3.75186 49.6509 3.53846L52.4637 0.229127C52.594 0.0840256 52.7878 0 52.9921 0H54.2752C54.5334 0 54.6748 0.276923 54.5103 0.460152L52.8238 2.46154H53.6588C55.574 2.46154 56.9988 3.77405 56.9988 5.53847V5.84616C56.9988 6.41572 56.8503 6.93819 56.5848 7.38462H58.3242C58.8777 7.38462 59.3264 6.97134 59.3264 6.46154V4.61539C59.3264 4.44545 59.4759 4.30769 59.6604 4.30769H60.6626C60.8471 4.30769 60.9967 4.44545 60.9967 4.61539V6.46154C60.9967 6.78797 60.9277 7.09956 60.8024 7.38462H61.994C62.5475 7.38462 62.9962 6.97134 62.9962 6.46154V4.61539C62.9962 4.44545 63.1458 4.30769 63.3303 4.30769H64.3324C64.5169 4.30769 64.6665 4.44545 64.6665 4.61539V6.46154C64.6665 6.78797 64.5975 7.09956 64.4722 7.38462H64.6714C65.2249 7.38462 65.6736 6.97134 65.6736 6.46154V4.61539C65.6736 4.44545 65.8231 4.30769 66.0076 4.30769H67.0098C67.1943 4.30769 67.3439 4.44545 67.3439 4.61539V6.46154C67.3439 7.82101 66.1474 8.92308 64.6714 8.92308H64.3502C64.2405 8.92308 64.1379 8.87355 64.0755 8.79053L63.7311 8.33228C63.2639 8.70061 62.6572 8.92308 61.994 8.92308H60.6706C60.561 8.92308 60.4584 8.87355 60.396 8.79053L60.0551 8.33707C59.5888 8.70254 58.9845 8.92308 58.3242 8.92308H56.3279C56.2182 8.92308 56.1156 8.87355 56.0532 8.79053L55.7009 8.32179C55.1452 8.70295 54.4431 8.92308 53.6588 8.92308H41.2952C41.1856 8.92308 41.083 8.87355 41.0206 8.79053L40.6797 8.33706C40.2134 8.70253 39.6091 8.92308 38.9488 8.92308H32.2805C30.8046 8.92308 29.6081 7.82101 29.6081 6.46154V4.61539C29.6081 4.44545 29.7576 4.30769 29.9421 4.30769H30.9443C31.1288 4.30769 31.2784 4.44545 31.2784 4.61539V6.46154C31.2784 6.97134 31.727 7.38462 32.2805 7.38462H38.9488C39.5023 7.38462 39.951 6.97134 39.951 6.46154V4.61539C39.951 4.44545 40.1005 4.30769 40.285 4.30769H41.2872C41.4717 4.30769 41.6212 4.44545 41.6212 4.61539V6.46154C41.6212 6.78797 41.5523 7.09956 41.427 7.38462H43.8327C43.7075 7.09956 43.6385 6.78797 43.6385 6.46154V5.53847C43.6385 4.17899 44.835 3.07693 46.311 3.07693C47.7869 3.07693 48.9834 4.17899 48.9834 5.53847V6.46154ZM47.3131 5.53847V6.46154C47.3131 6.97134 46.8644 7.38462 46.311 7.38462C45.7575 7.38462 45.3088 6.97134 45.3088 6.46154V5.53847C45.3088 5.02866 45.7575 4.61539 46.311 4.61539C46.8644 4.61539 47.3131 5.02866 47.3131 5.53847Z" fill="#E7133D"/>
<path d="M20.5864 5.84616C20.5864 6.41572 20.4379 6.93819 20.1724 7.38462H22.914C23.4675 7.38462 23.9162 6.97134 23.9162 6.46154V4.61539C23.9162 4.44545 24.0657 4.30769 24.2502 4.30769H25.2524C25.4369 4.30769 25.5865 4.44545 25.5865 4.61539V6.46154C25.5865 7.82101 24.39 8.92308 22.914 8.92308H20.5836C20.474 8.92308 20.3713 8.87355 20.3089 8.79053L19.7017 7.98258C19.1025 8.56946 18.2405 8.92308 17.2464 8.92308H11.4814L10.9693 8.32061C10.5002 8.69591 9.88773 8.92308 9.21761 8.92308H6.21909C6.10947 8.92308 6.00682 8.87355 5.94443 8.79053L5.57759 8.30248V8.3077C5.57759 10.0721 4.15282 11.3846 2.23765 11.3846H1.8964C1.69097 11.3846 1.49696 11.2976 1.37033 11.1486L0.655592 10.3077C0.464075 10.0943 0.521995 9.84616 0.82259 9.84616H2.23765C3.19351 9.84616 3.90762 9.18828 3.90762 8.3077L3.9073 4.61539C3.9073 4.44545 4.05686 4.30769 4.24136 4.30769H5.24353C5.42803 4.30769 5.57759 4.44545 5.57759 4.61539V7.38462H9.21761C9.7711 7.38462 10.2198 6.97134 10.2198 6.46154V4.61539C10.2198 4.44545 10.3693 4.30769 10.5538 4.30769H11.556C11.7405 4.30769 11.8901 4.44545 11.8901 4.61539V6.46154C11.8901 6.78797 11.8211 7.09956 11.6958 7.38462H17.2464C18.2023 7.38462 18.9164 6.72674 18.9164 5.84616V5.53847C18.9164 4.65788 18.2023 4 17.2464 4H13.4055C13.1049 4 13.047 3.75186 13.2385 3.53846L16.0514 0.229127C16.1816 0.0840256 16.3754 0 16.5797 0H17.8628C18.121 0 18.2624 0.276923 18.0979 0.460152L16.4115 2.46154H17.2464C19.1616 2.46154 20.5864 3.77405 20.5864 5.53847V5.84616Z" fill="#E7133D"/>
<path d="M26.6015 1.23077C26.6015 1.06084 26.7511 0.923077 26.9356 0.923077H27.9377C28.1222 0.923077 28.2718 1.06084 28.2718 1.23077V8.61539C28.2718 8.78532 28.1222 8.92308 27.9377 8.92308H26.9356C26.7511 8.92308 26.6015 8.78532 26.6015 8.61539V1.23077Z" fill="#E7133D"/>
</svg>
